<svg xmlns="http://www.w3.org/2000/svg" height="800" width="1200" viewBox="-54.19035 -30 469.6497 180"><path d="M172.78 87.265c-1.351.954-4.119 1.771-7.126 1.771-5.52 0-8.003-4.238-7.9-9.168.087-4.086 2.633-8.716 9.527-8.716l5.5-.003v16.116zm-5.675-45.315c-6.55 0-12.445 1.852-18.503 4.86l-1.546.797 3.688 8.23 2.079-.983c4.29-1.92 8.86-3.207 12.969-3.035 4.974.207 7.009 2.487 7.009 7.246v2.792h-8.133c-13.073 0-21.208 6.93-21.443 17.69 0 10.225 8.525 19.027 20.377 19.027 9.564 0 17.667-3.103 23.127-8.572V60.825c0-14.208-10.143-18.875-19.624-18.875zM361.269 89v8.629s-2.897.553-5.244.553c-10.958 0-17.5-5.162-17.5-17.217V30.124l13.76-2.344v54.076c0 4.178 1.2 6.678 6.915 7.123.78.057 2.07.02 2.07.02zm-60.353-25.671c.232-5.295 2.436-10.738 7.856-10.738 6.1 0 7 6.617 7 10.738h-14.856zm10.823 25.608c-3.762 0-6.301-1.234-7.966-3.03-2.47-2.667-3.565-8.151-3.267-13.981H330.1v-1.36c-.264-19.372-6.869-28.197-21.327-28.197-16.137 0-22.422 14.845-22.54 28.793-.1 8.824 3.228 17.708 9.313 22.769 3.706 3.078 8.845 4.784 14.801 4.784 3.245 0 6.637-.483 9.73-1.44 5.937-1.84 10.318-5.018 10.318-5.018l-3.87-7.965c-.697.526-6.623 4.645-14.785 4.645zm-30.332.113v8.505s-2.538.504-5.232.504c-11.208 0-17.896-5.412-17.896-16.854v-51.09l14.07-2.26V42.95h9.054v10.089h-9.054v28.747c0 3.764 1.162 7.016 7.063 7.223.798.028 1.846.028 1.995.042zm-84.401-43.89l13.727-2.24v54.664h-13.727V45.16zm7.004-24.083c2.388 0 4.597.93 6.22 2.616a8.462 8.462 0 012.379 6.167c0 4.862-3.83 8.686-8.721 8.686-4.882 0-8.718-3.835-8.718-8.743 0-4.808 3.967-8.726 8.84-8.726zm50.57 22.673l-3.873 8.684s-2.212-.708-5.618-.57c-3.684.147-7.559 1.706-9.383 3.485v42.274H221.7l.01-44.907c8.339-8.864 17.592-10.63 23.62-10.63 4.162 0 7.745.922 9.25 1.664zM79.443 0v.152h-1.215v.152H76.86v.152h-1.215v.152h-1.064v.151h-.76v.152h-.759v.152h-.76v.152h-.759v.152h-.76v.152h-.759v.152h-.455v.152h-.608v.152h-.608v.152h-.607v.151h-.456v.152h-.607v.152h-.608v.152h-.608v.152h-.455v.152h-.456v.152H64.1v.152h-.455v.152h-.456v.152h-.456v.151h-.456v.152h-.455v.152h-.456v.152h-.456v.152h-.455v.152H60v.152h-.456v.152h-.455v.152h-.304v.152h-.456v.151h-.304v.152h-.455v.152h-.304v.152h-.456v.152h-.456v.152h-.303v.152h-.456v.152h-.304v.152h-.456v.152h-.303v.151h-.456v.152h-.304v.152h-.304v.152h-.303v.152h-.456v.152h-.304v.152h-.304v.152h-.304v.152h-.303v.152h-.456v.151h-.304v.152h-.304v.152h-.303v.152h-.304v.152h-.456v.152h-.304v.152h-.304v.152h-.303v.152h-.304v.152h-.304v.151h-.304v.152h-.303v.152h-.304v.152h-.304v.152h-.304v.152h-.304v.152h-.303v.152h-.304v.152h-.304v.152h-.304v.151h-.304v.152h-.152v.152h-.303v.152h-.304V12h-.304v.152h-.304v.152h-.304v.152h-.303v.152h-.152v.151h-.304v.152h-.304v.152h-.304v.152h-.152v.152h-.303v.152h-.304v.152h-.304v.152h-.152v.152h-.304v.152h-.303v.151h-.304v.152h-.304v.152h-.152v.152h-.304v.152h-.304v.152h-.303v.152h-.152v.152h-.304v.152h-.152v.152h-.304v.151h-.152v.152h-.303v.152h-.304v.152h-.152v.152h-.304v.152h-.152v.152h-.304v.152h-.303v.152h-.152v.152h-.304v.151h-.152v.152h-.304v.152h-.152v.152h-.303v.152h-.304v.152h-.152v.152h-.304v.152h-.152v.152h-.304v.152h-.152v.151h-.303v.152h-.152v.152h-.152v.152h-.304v.152h-.152v.152h-.304v.152h-.152v.152h-.303v.152h-.152v.152h-.152v.151h-.304v.152h-.152v.152h-.304v.152h-.152v.152h-.303v.152h-.152v.152h-.152v.152h-.304v.152h-.152v.152h-.304v.151h-.152v.152h-.151v.152h-.304v.152h-.152v.152h-.152v.152h-.304v.152h-.152v.152h-.152v.152h-.152v.152h-.303v.151h-.152v.152h-.152v.152h-.304v.152h-.152V24h-.152v.152h-.152v.152h-.303v.152h-.152v.152h-.152v.151H24v.152h-.152v.152h-.152v.152h-.304v.152h-.151v.152h-.152v.152h-.152v.152h-.152v.152h-.152v.152h-.304v.151h-.152v.152h-.152v.152h-.152v.152h-.151v.152h-.152v.152h-.304v.152h-.152v.152h-.152v.152h-.152v.152h-.152v.151h-.152v.152h-.303v.152h-.152v.152h-.152v.152h-.152v.152h-.152v.152h-.152v.152h-.304v.152h-.152v.152h-.152v.151h-.151v.152h-.152v.152h-.152v.152h-.152v.152h-.152v.152h-.152v.152h-.152v.152h-.152v.152h-.152v.152h-.152v.151h-.151v.152h-.152v.152h-.152v.152h-.152v.152h-.152v.152h-.152v.152h-.152v.152h-.152v.152h-.304v.152h-.151v.151h-.152v.152h-.152v.152h-.152v.152h-.152v.152h-.152v.152h-.152v.152h-.152v.152h-.152v.152h-.152v.303h-.151v.152h-.152v.152h-.152v.152h-.152v.152h-.152v.152h-.152v.152h-.152v.152h-.152v.152h-.152v.152h-.152v.303h-.151v.152h-.152v.152h-.152V36h-.152v.152H12v.152h-.152v.152h-.152v.152h-.152v.151h-.152v.304h-.151v.152h-.152v.152h-.152v.152h-.152v.152h-.152v.152h-.152v.304h-.152v.151h-.152v.152h-.152v.304h-.152v.152h-.151v.152H9.57v.152h-.152v.304h-.152v.152h-.152v.151h-.152v.304H8.81v.152h-.152v.152h-.152v.152h-.152v.304h-.151v.152H8.05v.152h-.152v.303h-.152v.152h-.152v.152h-.152v.304H7.29v.152h-.15v.304h-.152v.152h-.152v.151h-.151v.304h-.152v.152H6.38v.304h-.152v.152h-.152v.304h-.152v.303h-.152v.152H5.62v.304h-.152v.152h-.152v.304h-.151v.304h-.152v.152H4.86v.303h-.152v.152h-.152v.304h-.152v.304h-.152v.304H4.1v.303h-.15v.152h-.152v.304h-.151v.304h-.152v.304h-.152v.303H3.19v.304h-.152v.304h-.152v.304h-.152v.304h-.152v.303H2.43v.456h-.152v.304h-.151v.304h-.152v.455h-.152v.304H1.67v.456h-.152v.456h-.152v.303h-.152v.608h-.152v.456H.911v.455H.76v.608H.608v.76H.456v.607H.304v1.063H.152v1.823H0v1.671h.152v1.52h.152v.759h.152v.607h.152v.608h.151v.455h.152v.456h.152v.456h.152v.304h.152v.303h.152v.304h.152v.304h.152v.304h.152v.304h.152v.303h.151v.152h.152v.304h.152v.152h.152v.304h.152v.152h.152v.304h.152v.151h.152v.152h.152v.152h.152v.152h.151v.152h.152v.152h.152v.152h.152v.152h.152v.152h.152v.152h.152v.151h.152v.152h.152v.152h.152v.152h.151V72h.152v.152h.152v.152h.152v.152h.152v.152h.304v.151h.152v.152h.304v.152h.151v.152h.304v.152h.152v.152h.304v.152h.152v.152h.304v.152h.152v.152h.303v.151h.152v.152h.304v.152h.304v.152h.456v.152h.303v.152h.304v.152h.456v.152h.304v.152h.303v.152H12v.151h.76v.152h.759v.152h.76v.152h3.797v-.152h1.063v-.152h.912v-.152h.607v-.151h.608v-.152h.456v-.152h.455v-.152h.608v-.152h.456v-.152h.303v-.152H24v-.152h.304v-.152h.304v-.152h.455v-.151h.304v-.152h.304v-.152h.304v-.152h.303v-.152h.304v-.152h.304v-.152h.304v-.152h.304v-.152h.303v-.152h.304v-.151h.304v-.152h.304v-.152h.152v-.152h.304V72h.151v-.152h.304v-.152h.304v-.152h.152v-.152h.304v-.151h.304v-.152h.151v-.152h.304v-.152h.152v-.152h.304v-.152h.152v-.152h.304v-.152h.152v-.152h.303v-.152h.152v-.151h.304v-.152h.152v-.152h.304v-.152h.152v-.152h.303v-.152h.152v-.152h.152v-.152h.304v-.152h.152v-.152h.152v-.151h.304v-.152h.152v-.152h.303v-.152h.152v-.152h.152v-.152h.304v-.152h.152v-.152h.152v-.152h.303v-.152h.152v-.151h.152v-.152h.304v-.152h.152v-.152h.152v-.152h.304v-.152h.152v-.152h.151v-.152h.304v-.152h.152v-.152h.152v-.151h.152v-.152h.304v-.152h.152v-.152h.152v-.152h.303v-.152h.152v-.152h.152v-.152h.304v-.152h.152v-.152h.152v-.151h.152v-.152h.303v-.152h.152v-.152h.152v-.152h.304v-.152h.152v-.152h.152v-.152h.304v-.152h.152v-.152h.151v-.151h.304v-.152h.152v-.152h.152v-.152h.304v-.152h.152v-.152h.152v-.152h.303v-.152h.152v-.152h.304v-.152h.152v-.151h.152v-.152h.304v-.152h.152v-.152h.303V60h.152v-.152h.304v-.152h.152v-.152h.304v-.152h.152v-.151h.304v-.152h.151v-.152h.152v-.152h.304v-.152H48v-.152h.304v-.152h.152v-.152h.303v-.152h.152v-.152h.304v-.151h.152v-.152h.304v-.152h.152v-.152h.304v-.152h.151v-.152h.304v-.152h.152v-.152h.304v-.152h.152v-.152h.304v-.151h.152v-.152h.151v-.152h.304v-.152h.152v-.152h.304v-.152h.152v-.152h.304v-.152h.152v-.152h.303v-.152h.152v-.151h.304v-.152h.152v-.152h.304v-.152h.152v-.152h.303v-.152h.152v-.152h.304v-.152h.152v-.152h.304v-.152h.152v-.151h.304v-.152h.151v-.152h.304v-.152h.152v-.152h.304v-.152h.152v-.152h.304v-.152h.152v-.152h.303v-.152h.152v-.151h.304v-.152h.152v-.152h.304v-.152h.152v-.152h.303v-.152h.152v-.152h.304v-.152H60v-.152h.304v-.152h.304v-.151h.151v-.152h.304v-.152h.152v-.152h.304v-.152h.152v-.152h.304v-.152h.152v-.152h.303v-.152h.152v-.152h.304v-.151h.304v-.152h.152v-.152h.304v-.152h.151V48h.304v-.152h.304v-.152h.152v-.152h.304v-.152h.152v-.151h.303v-.152h.152v-.152h.304v-.152h.304v-.152h.152v-.152h.304v-.152h.303v-.152h.152v-.152h.304v-.152h.304v-.151h.152v-.152h.304v-.152h.303v-.152h.152v-.152h.304v-.152h.304v-.152h.152v-.152h.304v-.152h.303v-.152h.152v-.151h.304v-.152h.304v-.152h.304v-.152h.152v-.152h.303v-.152h.304v-.152H72v-.152h.152v-.152h.304v-.152h.303v-.151h.304v-.152h.304v-.152h.152v-.152h.304v-.152h.304v-.152h.303v-.152h.304v-.152h.304v-.152h.304v-.152h.304v-.151h.303v-.152h.304v-.152h.304v-.152h.304v-.152h.304v-.152h.151v-.152h.456v-.152h.304v-.152h.304v-.152h.304v-.151h.303v-.152h.456v-.152h.304v-.152h.304v-.152h.303v-.152h.304v-.152h.456v-.152h.304v-.152h.455v-.152h.304v-.151h.456v-.152h.456v-.152h.303v-.152h.456v-.152h.304v-.152h.456v-.152h.607v-.152h.456v-.152h.607v-.152h.456v-.151h.608v-.152h.607v-.152h.76v-.152h.911V36h.76v-.152h2.582v-.152h.304v.152h1.367V36h1.215v.152h.456v.152h.455v.152h.456v.152h.304v.151h.456v.152h.303v.152h.304v.152h.152v.152h.304v.152h.304v.152h.152v.152h.303v.152h.152v.152h.304v.151h.152v.152h.152v.152h.152v.152h.152v.152h.152v.152h.152v.152h.151v.152h.152v.152h.152v.152h.152v.151h.152v.304h.152v.152h.152v.152h.152v.304h.152v.152h.152v.304h.151v.151h.152v.304h.152v.304h.152v.152h.152v.304h.152v.304h.152v.303h.152v.304h.152v.456h.152v.304h.151v.455h.152v.304h.152v.456h.152v.456h.152v.607h.152v.456h.152v.607h.152v.912h.152v.76h.152v1.67h.151v3.798h-.151v1.215h-.152v1.367h-.152v.76h-.152v.759h-.152v.608h-.152V60h-.152v.608h-.152v.607h-.152v.456h-.152v.456h-.151v.455h-.152v.608h-.152v.456h-.152v.455h-.152v.456h-.152v.304h-.152v.455h-.152v.304h-.152v.456h-.152v.304h-.151v.455h-.152v.304h-.152v.456h-.152v.304h-.152v.304h-.152v.303h-.152v.304h-.152v.456h-.152v.304h-.152v.303h-.151v.304h-.152v.304h-.152v.152h-.152v.304h-.152v.304h-.152v.303h-.152v.304h-.152V72h-.152v.304h-.152v.304h-.151v.151h-.152v.304h-.152v.304h-.152v.152h-.152v.304h-.152v.304h-.152v.151h-.152v.304h-.152v.152h-.152v.304h-.151v.152h-.152v.304h-.152v.152h-.152v.303h-.152v.152h-.152v.304h-.152v.152h-.152v.304h-.152v.152h-.152v.152h-.151v.303h-.152v.152h-.152v.152h-.152v.304H96v.152h-.152v.152h-.152v.304h-.152v.151h-.152v.304h-.151v.152h-.152v.152h-.152v.152h-.152v.304h-.152v.152h-.152v.152h-.152v.151h-.152v.304h-.152v.152h-.152v.152h-.151v.152h-.152v.304h-.152v.152h-.152v.152h-.152v.151h-.152v.152h-.152v.304h-.152v.152h-.152v.152h-.152v.152h-.151v.152h-.152v.304h-.152v.151h-.152v.152h-.152v.152h-.152v.152h-.152V84h-.152v.152h-.152v.152h-.152v.304h-.151v.151h-.152v.152h-.152v.152h-.152v.152h-.152v.152h-.152v.152h-.152v.152h-.152v.152h-.152v.304h-.152v.151h-.151v.152h-.152v.152h-.152v.152h-.152v.152h-.152v.152h-.152v.152h-.152v.152h-.152v.152h-.152v.152h-.152v.151h-.151v.152h-.152v.152h-.152v.152h-.152v.152h-.152v.152h-.152v.152h-.152v.152h-.152v.152h-.152v.152h-.152v.151h-.151v.152h-.152v.152h-.152v.152h-.152v.152h-.152v.152h-.152v.152h-.152v.152h-.152v.152h-.152v.152h-.152v.151h-.151v.152h-.152v.152h-.152v.152h-.152v.152H84v.152h-.152v.152h-.152v.152h-.152v.152h-.152v.152h-.151v.151h-.152v.152h-.304v.152h-.152v.152h-.152v.152h-.152v.152h-.152v.152h-.152v.152h-.152v.152h-.151v.152h-.152v.151h-.152v.152h-.304v.152h-.152v.152h-.152v.152h-.152v.152h-.152v.152h-.152v.152h-.151v.152h-.152v.152h-.304v.151h-.152v.152h-.152v.152h-.152v.152h-.152V96h-.152v.152h-.152v.152h-.303v.152h-.152v.152h-.152v.151h-.152v.152h-.152v.152h-.304v.152h-.152v.152h-.152v.152h-.151v.152h-.152v.152h-.304v.152h-.152v.152h-.152v.151h-.152v.152h-.152v.152h-.304v.152h-.151v.152h-.152v.152h-.152v.152h-.304v.152h-.152v.152h-.152v.152h-.152v.151h-.304v.152h-.151v.152h-.152v.152h-.152v.152h-.304v.152h-.152v.152h-.152v.152h-.152v.152h-.304v.152h-.151v.151h-.152v.152h-.304v.152H72v.152h-.152v.152h-.304v.152h-.152v.152h-.151v.152h-.304v.152h-.152v.152h-.152v.151h-.304v.152h-.152v.152h-.152v.152h-.303v.152h-.152v.152h-.152v.152h-.304v.152h-.152v.152h-.304v.152h-.152v.151h-.152v.152h-.303v.152h-.152v.152h-.304v.152h-.152v.152h-.304v.152h-.152v.152h-.152v.152h-.303v.152h-.152v.151h-.304v.152h-.152v.152h-.304v.152h-.152v.152h-.303v.152h-.152v.152h-.304v.152h-.152v.152h-.304v.152h-.152v.151h-.304v.152h-.151v.152h-.304v.152h-.304V108h-.152v.152h-.304v.152h-.152v.152h-.303v.152h-.304v.151h-.152v.152h-.304v.152h-.152v.152h-.304v.152h-.303v.152h-.304v.152h-.152v.152h-.304v.152h-.304v.152h-.152v.151h-.303v.152h-.304v.152h-.304v.152h-.152v.152h-.304v.152h-.303v.152h-.304v.152h-.304v.152h-.304v.152h-.152v.151h-.304v.152h-.303v.152h-.304v.152h-.304v.152h-.304v.152h-.304v.152h-.303v.152h-.304v.152h-.456v.152h-.304v.151h-.303v.152h-.304v.152h-.304v.152h-.456v.152h-.304v.152h-.455v.152h-.304v.152h-.456v.152h-.455v.152h-.304v.151h-.608v.152h-.456v.152h-.455v.152h-.608v.152h-.76v.152h-1.063v.152h-1.519v-.152h-.607v-.152h-.456v-.152h-.304v-.152h-.303v-.152h-.152v-.152h-.152v-.151h-.152v-.152h-.152v-.304h-.152v-.304h-.152v-.304h-.152v-.455h-.152v-1.52h.152v-.759h.152v-.456h.152v-.455h.152v-.304h.152v-.304h.152v-.304h.152v-.304h.152v-.303h.151v-.304h.152V108h.152v-.304h.152v-.304h.152v-.151h.152v-.304h.152v-.152h.152v-.304h.152v-.152h.152v-.304h.151v-.152h.152v-.151h.152v-.304h.152v-.152h.152v-.152h.152v-.304h.152v-.152h.152v-.152h.152v-.303h.152v-.152h.151v-.152h.152v-.152h.152v-.152h.152v-.304h.152v-.152h.152v-.152h.152v-.152h.152v-.151h.152v-.152h.152v-.304h.151v-.152h.152v-.152h.152v-.152h.152v-.152H48v-.152h.152v-.152h.152v-.151h.152v-.152h.152v-.152h.151v-.304h.152v-.152h.152v-.152h.152v-.152h.152v-.152h.152v-.152h.152v-.151h.152v-.152h.152v-.152h.152v-.152h.151v-.152h.152v-.152h.152v-.152h.152v-.152h.152v-.152h.152v-.152h.152v-.151h.152v-.152h.152v-.152h.152v-.152h.151v-.152h.152v-.152h.152v-.152h.152v-.152h.152v-.152h.152v-.152h.152v-.151h.152v-.152h.152v-.152h.152v-.152h.151V96h.152v-.152h.152v-.152h.152v-.152h.152v-.152h.152v-.151h.152v-.152h.152v-.152h.152v-.152h.152v-.152h.151v-.152h.152v-.152h.152v-.152h.152v-.152h.152v-.152h.152v-.151h.152v-.152h.152v-.152h.152v-.152h.152v-.152h.151v-.152h.152v-.152h.152v-.152h.152v-.152h.304v-.152h.152v-.303h.152v-.152h.152v-.152h.152v-.152h.151v-.152h.152v-.152h.152v-.152h.152v-.152h.152v-.152h.152v-.151h.152v-.152h.152v-.304h.152v-.152h.152v-.152h.151v-.152h.152v-.152h.152v-.152h.152v-.303H60v-.152h.152v-.152h.152v-.304h.152v-.152h.152v-.152h.151v-.152h.152v-.304h.152v-.151h.152v-.304h.152v-.152h.152v-.304h.152v-.304h.152v-.152h.152v-.303h.152v-.304h.151v-.152h.152v-.456h.152v-.456h.152v-.455h.152V84h.152v-2.278h-.152v-.608h-.152v-.456h-.152v-.152h-.152v-.303h-.152v-.152h-.151v-.304h-.152v-.152h-.152v-.152h-.152v-.152h-.152v-.152h-.152v-.152h-.152v-.152h-.152v-.151h-.152v-.152h-.303v-.152h-.152v-.152h-.304v-.152H60v-.152h-.304v-.152h-.304v-.152h-.303v-.152h-.304v-.152h-.456v-.151h-.456v-.152h-.303v-.152h-.456v-.152h-.76v-.152h-.607v-.152h-.912v-.152h-1.367v-.152h-.152v.152h-2.734v.152h-.911v.152h-.76v.152h-.455v.152H48v.152h-.608v.152h-.455v.151h-.304v.152h-.304v.152h-.304v.152h-.455v.152h-.304v.152h-.304v.152h-.304v.152h-.304v.152h-.151v.152h-.304v.151h-.152v.152h-.304v.152h-.152v.152h-.304v.152h-.152v.152h-.151v.152h-.304v.152h-.152v.152h-.304v.152h-.152v.151h-.152v.152h-.152v.152h-.152v.152h-.151v.152h-.304v.152h-.152v.152h-.152v.152h-.152v.152h-.152v.152h-.152v.151h-.152v.152h-.152v.152h-.151v.152h-.152v.152h-.152v.152h-.152v.152h-.152v.152h-.152v.152h-.152v.152h-.152v.303h-.152v.152h-.152v.152h-.151V84h-.152v.152h-.152v.304h-.152v.152h-.152v.151h-.152v.152h-.152v.152h-.152v.152h-.152v.304h-.152v.152h-.151v.304h-.152v.152h-.152v.303h-.152v.152H36v.304h-.152v.152h-.152v.304h-.152v.152h-.152v.303h-.151v.152h-.152v.304h-.152v.152h-.152v.304h-.152v.152h-.152v.304h-.152v.303h-.152v.304h-.152v.304h-.152v.304h-.151v.304h-.152v.303h-.152v.152h-.152v.304h-.152v.304h-.152v.304h-.152v.303h-.152v.304h-.152v.304h-.152v.304h-.151v.304h-.152v.303h-.152v.456h-.152v.304h-.152v.304h-.152v.455h-.152v.304h-.152V96h-.152v.456h-.152v.303h-.151v.304h-.152v.456h-.152v.304h-.152v.455h-.152v.456h-.152v.456h-.152v.456h-.152v.607h-.152v.456h-.152v.456h-.151v.607h-.152v1.063h-.152v1.064h-.152v1.215h-.152v.152h.152v3.038h.152v.607h.152v.608h.152v.76h.151v.607h.152v.304h.152v.304h.152v.455h.152v.304h.152v.304h.152v.304h.152v.304h.152v.303h.152v.152h.151v.304h.152v.152h.152v.304h.152v.152h.152v.152h.152v.303h.152v.152h.152v.152h.152v.304h.303v.152h.152v.152h.152v.152h.152v.152h.152v.151h.152v.152h.152v.152h.152v.152h.152v.152h.152v.152h.151v.152h.304v.152h.152v.152h.304v.152h.152v.151h.304v.152h.152v.152h.303v.152h.152v.152H36v.152h.304v.152h.304v.152h.303v.152h.456v.152h.456v.151h.455v.152h.76v.152h.911v.152h1.52V120h2.43v-.152h1.823v-.152h1.063v-.152h.911v-.152h.76v-.151h.76v-.152h.607v-.152h.607v-.152h.608v-.152h.456v-.152h.455v-.152h.608v-.152h.456v-.152h.455v-.152h.456v-.151h.456v-.152h.304v-.152h.455v-.152h.456v-.152h.304v-.152h.455v-.152h.304v-.152h.456v-.152h.304v-.152h.455v-.151h.304v-.152h.304v-.152h.304v-.152h.456v-.152h.303v-.152h.304v-.152h.304v-.152h.304v-.152h.303v-.152h.304v-.151h.456v-.152h.304v-.152h.304v-.152h.303v-.152h.304v-.152h.152v-.152h.304v-.152h.304v-.152h.303v-.152h.304v-.151h.304v-.152h.304v-.152h.304v-.152h.152v-.152h.303v-.152h.304v-.152h.304v-.152h.304v-.152h.152v-.152h.303v-.151h.304v-.152h.304v-.152h.152v-.152h.304v-.152h.304v-.152h.151v-.152h.304v-.152h.304v-.152h.152v-.152h.304v-.151h.304v-.152h.151v-.152h.304v-.152h.152v-.152h.304v-.152h.304v-.152h.152v-.152h.303v-.152h.152v-.152h.304v-.151h.304v-.152h.152v-.152h.304v-.152h.151V108h.304v-.152h.152v-.152h.304v-.152h.152v-.152h.304v-.151h.152v-.152h.303v-.152h.152v-.152h.304v-.152h.152v-.152h.304v-.152h.152v-.152h.152v-.152h.303v-.152h.152v-.151h.304v-.152h.152v-.152h.304v-.152h.152v-.152h.303v-.152h.152v-.152h.152v-.152h.304v-.152h.152v-.152h.152v-.151h.304v-.152h.152v-.152h.303v-.152h.152v-.152h.152v-.152h.304v-.152h.152v-.152h.152v-.152h.304v-.152h.151v-.151h.304v-.152h.152v-.152h.152v-.152h.304v-.152h.152v-.152h.152v-.152h.303v-.152h.152v-.152h.152v-.152h.152v-.151h.304v-.152h.152v-.152h.152v-.152h.304v-.152h.151v-.152h.152v-.152h.304v-.152H84v-.152h.152v-.152h.152v-.151h.304v-.152h.151v-.152h.152v-.152h.304v-.152h.152v-.152h.152v-.152h.152v-.152h.304v-.152h.152v-.152h.151v-.151h.152v-.152h.304v-.152h.152v-.152h.152v-.152h.152v-.152h.304v-.152h.152v-.152h.151v-.152h.152v-.152h.152v-.151h.304v-.152h.152v-.152h.152v-.152h.152V96h.304v-.152h.151v-.152h.152v-.152h.152v-.152h.152v-.151h.304v-.152h.152v-.152h.152v-.152h.152v-.152h.152v-.152h.303v-.152h.152v-.152h.152v-.152h.152v-.152h.152v-.151h.152v-.152h.304v-.152h.152v-.152h.151v-.152h.152v-.152h.152v-.152h.152v-.152h.304v-.152h.152v-.152h.152v-.151h.152v-.152h.152v-.152h.151v-.152h.152v-.152h.304v-.152h.152v-.152h.152v-.152h.152v-.152h.152v-.152h.152v-.151h.152v-.152h.151v-.152h.152v-.152h.304v-.152H96v-.152h.152v-.152h.152v-.152h.152v-.152h.152v-.152h.151v-.151h.152v-.152h.152v-.152h.152v-.152h.152v-.152h.152v-.152h.152v-.152h.152v-.152h.152v-.152h.152v-.152h.151v-.151h.152v-.152h.152v-.152h.152v-.152h.152v-.152h.152v-.152h.152v-.152h.152v-.152h.152v-.152h.152v-.152h.151v-.151h.152v-.152h.152v-.152h.152v-.152h.152v-.152h.152v-.152h.152v-.152h.152v-.152h.152v-.152h.152v-.152h.151v-.303h.152v-.152h.152v-.152h.152V84h.152v-.152h.152v-.152h.152v-.152h.152v-.152h.152v-.151h.152v-.152h.151v-.304h.152v-.152h.152v-.152h.152v-.152h.152v-.152h.152v-.152h.152v-.303h.152v-.152h.152v-.152h.152v-.152h.151v-.152h.152v-.152h.152v-.304h.152v-.152h.152v-.152h.152v-.151h.152v-.152h.152v-.304h.152v-.152h.152v-.152h.151v-.304h.152v-.152h.152v-.152h.152v-.151h.152v-.304h.152v-.152h.152v-.152h.152v-.152h.152v-.304h.152v-.152h.151v-.152h.152v-.303h.152v-.152h.152v-.152H108v-.304h.152v-.152h.152v-.152h.152v-.304h.152v-.151h.151v-.304h.152v-.152h.152v-.152h.152v-.304h.152v-.152h.152v-.304h.152v-.151h.152v-.152h.152v-.304h.152v-.152h.151v-.304h.152v-.152h.152v-.304h.152v-.151h.152v-.304h.152v-.152h.152v-.304h.152v-.152h.152v-.304h.152v-.151h.151v-.304h.152v-.304h.152v-.152h.152v-.304h.152v-.152h.152v-.303h.152v-.304h.152v-.152h.152v-.304h.152v-.304h.151v-.152h.152v-.303h.152v-.304h.152v-.152h.152v-.304h.152v-.304h.152v-.304h.152v-.151h.152v-.304h.152v-.304h.151v-.304h.152v-.304h.152v-.303h.152v-.304h.152v-.152h.152v-.304h.152v-.304h.152v-.304h.152v-.303h.152v-.304h.151v-.304h.152v-.304h.152v-.304h.152v-.303h.152v-.456h.152v-.304h.152v-.304h.152v-.303h.152v-.304h.152V60h.151v-.304h.152v-.455h.152v-.304h.152v-.456h.152v-.304h.152v-.455h.152v-.304h.152v-.456h.152v-.304h.152v-.455h.151v-.304h.152v-.456h.152v-.456h.152v-.455H120v-.456h.152v-.456h.152v-.455h.152v-.456h.152v-.456h.151v-.456h.152v-.607h.152v-.608h.152v-.455h.152v-.608h.152v-.608h.152v-.607h.152v-.76h.152v-.76h.152v-.759h.151v-.76h.152v-.91h.152v-1.216h.152v-1.215h.152v-1.975h.152v-4.708h-.152v-2.887h-.152V31.14h-.152v-.911h-.152v-.912h-.152v-.91h-.151v-.912h-.152v-.76h-.152v-.456h-.152v-.455h-.152v-.608h-.152v-.456h-.152v-.455h-.152v-.608h-.152v-.455h-.152v-.456h-.151v-.456h-.152v-.304h-.152v-.303h-.152v-.456H120v-.304h-.152v-.304h-.152v-.304h-.152V19.9h-.152v-.304h-.151v-.304h-.152v-.304h-.152v-.303h-.152v-.304h-.152v-.304h-.152v-.152h-.152v-.304h-.152v-.152h-.152v-.303h-.152v-.304h-.151v-.152h-.152v-.304h-.152v-.304h-.152v-.152h-.152v-.303h-.152v-.152h-.152v-.304h-.152v-.152h-.152v-.152h-.152v-.304h-.151v-.152h-.152v-.152h-.152v-.151h-.152v-.304h-.152v-.152h-.152v-.152h-.152v-.152h-.152v-.304h-.152v-.152h-.152v-.152h-.151v-.151h-.152v-.152h-.152v-.304h-.152V12h-.152v-.152h-.152v-.152h-.152v-.152h-.152v-.152h-.152v-.151h-.303v-.152h-.152v-.152h-.152v-.152h-.152v-.152h-.152v-.152h-.152v-.152h-.152v-.152h-.152v-.152h-.152v-.152h-.152v-.151h-.151V9.57h-.152v-.152h-.152v-.152h-.304v-.152h-.152v-.152h-.152V8.81h-.304v-.152h-.152v-.152h-.151v-.152h-.304v-.151h-.152V8.05h-.152v-.152h-.304v-.152h-.152v-.152h-.152v-.152h-.152V7.29h-.303v-.15h-.304v-.152H108v-.152h-.304v-.151h-.304v-.152h-.151V6.38h-.304v-.152h-.152v-.152h-.304v-.152h-.304v-.152h-.152V5.62h-.303v-.152h-.304v-.152h-.304v-.151h-.304v-.152h-.304V4.86h-.303v-.152h-.304v-.152h-.304v-.152h-.304v-.152h-.304V4.1h-.303v-.15h-.304v-.152h-.456v-.151h-.304v-.152h-.455v-.152h-.304V3.19h-.456v-.152h-.456v-.152h-.303v-.152h-.456v-.152h-.456V2.43h-.456v-.152h-.455v-.151h-.608v-.152h-.456v-.152h-.455V1.67h-.608v-.152h-.607v-.152h-.608v-.152h-.76v-.152h-.607V.911h-.76V.76h-.911V.608h-.911V.456h-.912V.304h-1.367V.152h-1.367V0h-7.443z" fill="#e20010"/><path d="M42.228 109.063v.304h.152v-.304h-.152zm-.152.304v.304h.152v-.304h-.152zm-.152.304v.304h.152v-.304h-.152zm-.152.456v.303h.152v-.303h-.152zm-.152.455v.304h.152v-.304h-.152zm-.152.76v.304h.152v-.304h-.152zm.912-2.582v.303h.152v-.304h-.152zm1.063-1.975v.304h.152v-.304h-.152z" fill="#d10010"/><path d="M43.443 106.937v.152h-.152v.152h-.152v.303h-.152v.304h-.152V108h-.151v.304h-.152v.304h-.152v.303h.152v-.152h.152v-.303h.151v-.304h.152V108h.152v-.304h.152v-.304h.152v-.151h.152v-.304h-.152zm-1.215 1.974v.304h.152v-.152h.152v-.152h-.304z" fill="#d10010"/></svg>