<svg width="350" height="342" viewBox="0 0 350 342" fill="none" xmlns="http://www.w3.org/2000/svg">
<path d="M120.736 27.7756C156.898 3.94403 207.717 8.80168 239.686 44.1753C257.165 63.5229 264.265 90.1362 282.408 109.069C302.835 130.368 327.248 151.085 336.507 180.148C346.346 211.038 337.711 246.453 315.706 270.077C288.927 298.808 249.567 290.172 212.367 289.715C60.0356 287.805 -53.185 186.127 90.8838 60.7827C102.924 50.237 108.778 35.6226 120.736 27.7756Z" fill="#D1FADF"/>
<path d="M255.753 116.667H207.177C204.437 116.667 202.195 114.425 202.195 111.685V80.1306C202.195 77.3904 204.437 75.1484 207.177 75.1484H255.753C258.494 75.1484 260.736 77.3904 260.736 80.1306V111.685C260.736 114.425 258.494 116.667 255.753 116.667Z" fill="white"/>
<path d="M199.537 81.0022V112.183C199.537 116.5 203.025 119.988 207.343 119.988H254.093C258.41 119.988 261.898 116.5 261.898 112.183V81.0022C261.898 76.6843 258.41 73.1968 254.093 73.1968H207.343C203.025 73.1968 199.537 76.6843 199.537 81.0022ZM203.606 112.971C203.565 112.722 203.44 112.473 203.44 112.224V81.0437C203.44 80.6286 203.565 80.2549 203.689 79.9228L220.172 94.0805L203.606 112.971ZM254.093 77.0995C254.342 77.0995 254.591 77.1825 254.84 77.2656L230.718 97.9417L206.595 77.2656C206.845 77.2241 207.052 77.0995 207.343 77.0995H254.093ZM241.263 93.9975L257.746 79.8397C257.871 80.2134 257.995 80.587 257.995 80.9607V112.141C257.995 112.432 257.912 112.639 257.829 112.888L241.263 93.9975ZM207.343 116.085C206.928 116.085 206.595 115.961 206.222 115.878L223.12 96.5716L229.431 102.011C229.804 102.343 230.261 102.467 230.718 102.467C231.174 102.467 231.631 102.301 232.005 102.011L238.316 96.5716L255.214 115.878C254.84 116.002 254.508 116.085 254.093 116.085H207.343Z" fill="#FFBE55"/>
<path d="M279.419 205.931H242.883C240.142 205.931 237.9 203.689 237.9 200.949V177.948C237.9 175.208 240.142 172.966 242.883 172.966H279.419C282.159 172.966 284.401 175.208 284.401 177.948V200.949C284.401 203.689 282.159 205.931 279.419 205.931Z" fill="white"/>
<path d="M236.572 177.408V202.07C236.572 205.474 239.312 208.256 242.758 208.256H279.751C283.155 208.256 285.937 205.516 285.937 202.07V177.408C285.937 174.003 283.197 171.222 279.751 171.222H242.758C239.354 171.263 236.572 174.003 236.572 177.408ZM239.769 202.693C239.727 202.485 239.644 202.319 239.644 202.07V177.408C239.644 177.076 239.727 176.785 239.81 176.495L252.847 187.663L239.769 202.693ZM279.751 174.336C279.958 174.336 280.125 174.419 280.332 174.46L261.275 190.818L242.218 174.46C242.426 174.419 242.592 174.336 242.8 174.336H279.751ZM269.579 187.704L282.616 176.536C282.699 176.827 282.782 177.117 282.782 177.449V202.111C282.782 202.319 282.699 202.527 282.657 202.734L269.579 187.704ZM242.758 205.142C242.426 205.142 242.177 205.059 241.886 204.976L255.255 189.697L260.279 193.974C260.569 194.223 260.943 194.347 261.275 194.347C261.649 194.347 261.981 194.223 262.272 193.974L267.295 189.697L280.664 204.976C280.374 205.059 280.083 205.142 279.792 205.142H242.758Z" fill="#2A94F4"/>
<path d="M297.438 75.7295V92.4199C297.438 94.7449 299.306 96.6132 301.631 96.6132H326.667C328.992 96.6132 330.86 94.7449 330.86 92.4199V75.7295C330.86 73.4045 328.992 71.5361 326.667 71.5361H301.631C299.306 71.5361 297.438 73.4045 297.438 75.7295ZM299.638 92.8351C299.597 92.7105 299.555 92.586 299.555 92.4199V75.7295C299.555 75.5219 299.597 75.3143 299.68 75.1067L308.523 82.6631L299.638 92.8351ZM326.667 73.6536C326.791 73.6536 326.916 73.6951 327.04 73.7366L314.128 84.822L301.216 73.7366C301.34 73.6951 301.465 73.6536 301.59 73.6536H326.667ZM319.816 82.7046L328.66 75.1482C328.701 75.3558 328.784 75.5219 328.784 75.771V92.4614C328.784 92.586 328.743 92.752 328.701 92.8766L319.816 82.7046ZM301.631 94.4958C301.423 94.4958 301.216 94.4543 301.05 94.3712L310.101 84.0332L313.505 86.9395C313.713 87.1055 313.962 87.1886 314.17 87.1886C314.419 87.1886 314.668 87.1055 314.834 86.9395L318.238 84.0332L327.289 94.3712C327.082 94.4128 326.916 94.4958 326.708 94.4958H301.631Z" fill="#CCE9FF"/>
<path d="M304.33 161.922H289.383C286.643 161.922 284.401 159.68 284.401 156.939V148.054C284.401 145.314 286.643 143.072 289.383 143.072H304.33C307.07 143.072 309.312 145.314 309.312 148.054V156.939C309.312 159.68 307.07 161.922 304.33 161.922Z" fill="white"/>
<path d="M283.778 145.979V158.932C283.778 160.718 285.231 162.171 287.017 162.171H306.447C308.233 162.171 309.686 160.718 309.686 158.932V145.979C309.686 144.193 308.233 142.74 306.447 142.74H287.017C285.231 142.782 283.778 144.193 283.778 145.979ZM285.48 159.265C285.439 159.14 285.397 159.057 285.397 158.932V145.979C285.397 145.813 285.439 145.647 285.48 145.522L292.331 151.376L285.48 159.265ZM306.447 144.401C306.572 144.401 306.655 144.442 306.738 144.442L296.732 153.037L286.726 144.442C286.809 144.442 286.934 144.401 287.017 144.401H306.447ZM301.091 151.376L307.942 145.522C307.983 145.688 308.025 145.813 308.025 145.979V158.932C308.025 159.057 307.983 159.14 307.942 159.265L301.091 151.376ZM287.017 160.552C286.851 160.552 286.684 160.51 286.56 160.469L293.577 152.456L296.192 154.698C296.358 154.822 296.524 154.905 296.732 154.905C296.94 154.905 297.106 154.822 297.272 154.698L299.887 152.456L306.904 160.469C306.738 160.51 306.613 160.552 306.447 160.552H287.017Z" fill="#FFBE55"/>
<path d="M254.259 39.2766V52.7285C254.259 54.5968 255.753 56.0915 257.622 56.0915H277.758C279.626 56.0915 281.121 54.5968 281.121 52.7285V39.2766C281.121 37.4082 279.626 35.9136 277.758 35.9136H257.622C255.795 35.9136 254.259 37.4082 254.259 39.2766ZM256.044 53.0607C256.002 52.9361 255.961 52.8531 255.961 52.7285V39.2766C255.961 39.1105 256.002 38.9444 256.044 38.7783L263.143 44.8815L256.044 53.0607ZM277.799 37.6158C277.924 37.6158 278.007 37.6573 278.132 37.6989L267.752 46.6253L257.372 37.6989C257.497 37.6573 257.58 37.6158 257.705 37.6158H277.799ZM272.278 44.8815L279.377 38.7783C279.419 38.9444 279.46 39.1105 279.46 39.2766V52.7285C279.46 52.8531 279.419 52.9361 279.377 53.0607L272.278 44.8815ZM257.622 54.3893C257.455 54.3893 257.289 54.3477 257.123 54.3062L264.389 46.0025L267.129 48.3276C267.295 48.4521 267.461 48.5352 267.669 48.5352C267.877 48.5352 268.043 48.4521 268.209 48.3276L270.949 46.0025L278.215 54.3062C278.049 54.3477 277.924 54.3893 277.716 54.3893H257.622Z" fill="#2A94F4"/>
<path d="M220.546 123.85C221.233 123.85 221.791 123.292 221.791 122.604C221.791 121.916 221.233 121.358 220.546 121.358C219.858 121.358 219.3 121.916 219.3 122.604C219.3 123.292 219.858 123.85 220.546 123.85Z" fill="#6B6B6B"/>
<path d="M216.601 125.967C217.289 125.967 217.847 125.409 217.847 124.721C217.847 124.033 217.289 123.476 216.601 123.476C215.913 123.476 215.356 124.033 215.356 124.721C215.356 125.409 215.913 125.967 216.601 125.967Z" fill="#6B6B6B"/>
<path d="M212.74 128.209C213.428 128.209 213.986 127.651 213.986 126.963C213.986 126.275 213.428 125.718 212.74 125.718C212.052 125.718 211.495 126.275 211.495 126.963C211.495 127.651 212.052 128.209 212.74 128.209Z" fill="#6B6B6B"/>
<path d="M209.626 131.406C210.314 131.406 210.872 130.848 210.872 130.16C210.872 129.472 210.314 128.915 209.626 128.915C208.938 128.915 208.381 129.472 208.381 130.16C208.381 130.848 208.938 131.406 209.626 131.406Z" fill="#6B6B6B"/>
<path d="M206.969 134.976C207.657 134.976 208.215 134.419 208.215 133.731C208.215 133.043 207.657 132.485 206.969 132.485C206.281 132.485 205.724 133.043 205.724 133.731C205.724 134.419 206.281 134.976 206.969 134.976Z" fill="#6B6B6B"/>
<path d="M204.935 138.962C205.623 138.962 206.18 138.404 206.18 137.716C206.18 137.028 205.623 136.471 204.935 136.471C204.247 136.471 203.689 137.028 203.689 137.716C203.689 138.404 204.247 138.962 204.935 138.962Z" fill="#6B6B6B"/>
<path d="M203.648 143.239C204.336 143.239 204.893 142.681 204.893 141.993C204.893 141.305 204.336 140.748 203.648 140.748C202.96 140.748 202.402 141.305 202.402 141.993C202.402 142.681 202.96 143.239 203.648 143.239Z" fill="#6B6B6B"/>
<path d="M227.396 160.884C228.084 160.884 228.642 160.326 228.642 159.638C228.642 158.95 228.084 158.393 227.396 158.393C226.708 158.393 226.151 158.95 226.151 159.638C226.151 160.326 226.708 160.884 227.396 160.884Z" fill="#6B6B6B"/>
<path d="M222.912 160.884C223.6 160.884 224.158 160.326 224.158 159.638C224.158 158.95 223.6 158.393 222.912 158.393C222.224 158.393 221.667 158.95 221.667 159.638C221.667 160.326 222.224 160.884 222.912 160.884Z" fill="#6B6B6B"/>
<path d="M218.428 160.884C219.116 160.884 219.674 160.326 219.674 159.638C219.674 158.95 219.116 158.393 218.428 158.393C217.74 158.393 217.183 158.95 217.183 159.638C217.183 160.326 217.74 160.884 218.428 160.884Z" fill="#6B6B6B"/>
<path d="M213.944 160.884C214.632 160.884 215.19 160.326 215.19 159.638C215.19 158.95 214.632 158.393 213.944 158.393C213.256 158.393 212.699 158.95 212.699 159.638C212.699 160.326 213.256 160.884 213.944 160.884Z" fill="#6B6B6B"/>
<path d="M209.46 160.884C210.148 160.884 210.706 160.326 210.706 159.638C210.706 158.95 210.148 158.393 209.46 158.393C208.772 158.393 208.215 158.95 208.215 159.638C208.215 160.326 208.772 160.884 209.46 160.884Z" fill="#6B6B6B"/>
<path d="M279.294 153.66C279.982 153.66 280.54 153.102 280.54 152.414C280.54 151.726 279.982 151.168 279.294 151.168C278.606 151.168 278.049 151.726 278.049 152.414C278.049 153.102 278.606 153.66 279.294 153.66Z" fill="#6B6B6B"/>
<path d="M274.81 153.535C275.498 153.535 276.056 152.977 276.056 152.289C276.056 151.602 275.498 151.044 274.81 151.044C274.122 151.044 273.565 151.602 273.565 152.289C273.565 152.977 274.122 153.535 274.81 153.535Z" fill="#6B6B6B"/>
<path d="M270.326 153.411C271.014 153.411 271.572 152.853 271.572 152.165C271.572 151.477 271.014 150.919 270.326 150.919C269.638 150.919 269.081 151.477 269.081 152.165C269.081 152.853 269.638 153.411 270.326 153.411Z" fill="#6B6B6B"/>
<path d="M265.967 154.49C266.655 154.49 267.212 153.932 267.212 153.245C267.212 152.557 266.655 151.999 265.967 151.999C265.279 151.999 264.721 152.557 264.721 153.245C264.721 153.932 265.279 154.49 265.967 154.49Z" fill="#6B6B6B"/>
<path d="M261.649 155.694C262.337 155.694 262.894 155.136 262.894 154.448C262.894 153.76 262.337 153.203 261.649 153.203C260.961 153.203 260.403 153.76 260.403 154.448C260.403 155.136 260.961 155.694 261.649 155.694Z" fill="#6B6B6B"/>
<path d="M257.954 158.185C258.642 158.185 259.199 157.627 259.199 156.939C259.199 156.252 258.642 155.694 257.954 155.694C257.266 155.694 256.708 156.252 256.708 156.939C256.708 157.627 257.266 158.185 257.954 158.185Z" fill="#6B6B6B"/>
<path d="M254.591 161.091C255.279 161.091 255.836 160.534 255.836 159.846C255.836 159.158 255.279 158.6 254.591 158.6C253.903 158.6 253.345 159.158 253.345 159.846C253.345 160.534 253.903 161.091 254.591 161.091Z" fill="#6B6B6B"/>
<path d="M251.892 164.662C252.58 164.662 253.138 164.104 253.138 163.416C253.138 162.729 252.58 162.171 251.892 162.171C251.204 162.171 250.646 162.729 250.646 163.416C250.646 164.104 251.204 164.662 251.892 164.662Z" fill="#6B6B6B"/>
<path d="M249.982 168.689C250.67 168.689 251.228 168.132 251.228 167.444C251.228 166.756 250.67 166.198 249.982 166.198C249.294 166.198 248.737 166.756 248.737 167.444C248.737 168.132 249.294 168.689 249.982 168.689Z" fill="#6B6B6B"/>
<path d="M300.178 101.762C300.866 101.762 301.423 101.204 301.423 100.516C301.423 99.8282 300.866 99.2705 300.178 99.2705C299.49 99.2705 298.932 99.8282 298.932 100.516C298.932 101.204 299.49 101.762 300.178 101.762Z" fill="#6B6B6B"/>
<path d="M296.483 104.336C297.171 104.336 297.728 103.778 297.728 103.09C297.728 102.402 297.171 101.845 296.483 101.845C295.795 101.845 295.237 102.402 295.237 103.09C295.237 103.778 295.795 104.336 296.483 104.336Z" fill="#6B6B6B"/>
<path d="M292.373 106.038C293.06 106.038 293.618 105.48 293.618 104.792C293.618 104.105 293.06 103.547 292.373 103.547C291.685 103.547 291.127 104.105 291.127 104.792C291.127 105.48 291.685 106.038 292.373 106.038Z" fill="#6B6B6B"/>
<path d="M288.179 107.657C288.867 107.657 289.425 107.099 289.425 106.412C289.425 105.724 288.867 105.166 288.179 105.166C287.491 105.166 286.934 105.724 286.934 106.412C286.934 107.099 287.491 107.657 288.179 107.657Z" fill="#6B6B6B"/>
<path d="M283.82 108.612C284.508 108.612 285.065 108.055 285.065 107.367C285.065 106.679 284.508 106.121 283.82 106.121C283.132 106.121 282.574 106.679 282.574 107.367C282.574 108.055 283.132 108.612 283.82 108.612Z" fill="#6B6B6B"/>
<path d="M279.419 109.484C280.107 109.484 280.664 108.926 280.664 108.238C280.664 107.55 280.107 106.993 279.419 106.993C278.731 106.993 278.173 107.55 278.173 108.238C278.173 108.926 278.731 109.484 279.419 109.484Z" fill="#6B6B6B"/>
<path d="M274.935 109.858C275.623 109.858 276.18 109.3 276.18 108.612C276.18 107.924 275.623 107.367 274.935 107.367C274.247 107.367 273.689 107.924 273.689 108.612C273.689 109.3 274.247 109.858 274.935 109.858Z" fill="#6B6B6B"/>
<path d="M270.451 110.024C271.139 110.024 271.696 109.466 271.696 108.778C271.696 108.09 271.139 107.533 270.451 107.533C269.763 107.533 269.205 108.09 269.205 108.778C269.205 109.466 269.763 110.024 270.451 110.024Z" fill="#6B6B6B"/>
<path d="M265.967 109.899C266.655 109.899 267.212 109.342 267.212 108.654C267.212 107.966 266.655 107.408 265.967 107.408C265.279 107.408 264.721 107.966 264.721 108.654C264.721 109.342 265.279 109.899 265.967 109.899Z" fill="#6B6B6B"/>
<path d="M249.027 49.1991C249.715 49.1991 250.273 48.6415 250.273 47.9536C250.273 47.2657 249.715 46.708 249.027 46.708C248.339 46.708 247.782 47.2657 247.782 47.9536C247.782 48.6415 248.339 49.1991 249.027 49.1991Z" fill="#6B6B6B"/>
<path d="M244.709 50.3617C245.397 50.3617 245.955 49.8041 245.955 49.1162C245.955 48.4283 245.397 47.8706 244.709 47.8706C244.022 47.8706 243.464 48.4283 243.464 49.1162C243.464 49.8041 244.022 50.3617 244.709 50.3617Z" fill="#6B6B6B"/>
<path d="M241.139 52.9774C241.827 52.9774 242.384 52.4198 242.384 51.7319C242.384 51.044 241.827 50.4863 241.139 50.4863C240.451 50.4863 239.893 51.044 239.893 51.7319C239.893 52.4198 240.451 52.9774 241.139 52.9774Z" fill="#6B6B6B"/>
<path d="M238.482 56.4237C239.17 56.4237 239.727 55.8661 239.727 55.1782C239.727 54.4903 239.17 53.9326 238.482 53.9326C237.794 53.9326 237.236 54.4903 237.236 55.1782C237.236 55.8661 237.794 56.4237 238.482 56.4237Z" fill="#6B6B6B"/>
<path d="M236.904 60.6171C237.592 60.6171 238.149 60.0594 238.149 59.3715C238.149 58.6836 237.592 58.126 236.904 58.126C236.216 58.126 235.658 58.6836 235.658 59.3715C235.658 60.0594 236.216 60.6171 236.904 60.6171Z" fill="#6B6B6B"/>
<path d="M236.406 65.0595C237.094 65.0595 237.651 64.5018 237.651 63.8139C237.651 63.126 237.094 62.5684 236.406 62.5684C235.718 62.5684 235.16 63.126 235.16 63.8139C235.16 64.5018 235.718 65.0595 236.406 65.0595Z" fill="#6B6B6B"/>
<path d="M236.738 69.5433C237.426 69.5433 237.983 68.9857 237.983 68.2978C237.983 67.6099 237.426 67.0522 236.738 67.0522C236.05 67.0522 235.492 67.6099 235.492 68.2978C235.492 68.9857 236.05 69.5433 236.738 69.5433Z" fill="#6B6B6B"/>
<path d="M164.33 291.459C164.662 291.334 164.953 291.251 165.285 291.127C165.285 291.127 165.16 290.878 164.953 290.38C161.548 283.321 133.232 227.521 78.6358 216.809C78.2206 216.726 77.7639 216.643 77.3487 216.56C70.4151 215.314 63.1079 214.775 55.3855 215.148C55.3855 215.148 44.5492 215.356 31.2218 224.739C30.9312 224.947 30.6405 225.154 30.3084 225.362C24.3297 229.721 17.8944 235.99 11.7081 244.875L11.3345 245.374C11.3345 245.374 11.4175 245.623 11.6251 246.079C13.5349 250.48 24.6619 273.938 50.9845 289.342C51.3167 289.549 51.6903 289.757 52.0225 289.923C75.8956 303.582 111.892 310.474 164.33 291.459Z" fill="#0B4870"/>
<path d="M165.16 291.708L165.285 291.127L165.409 290.546L164.952 290.421L11.7081 244.958L11.3345 245.457C11.3345 245.457 11.4175 245.706 11.6251 246.163L164.33 291.459L165.16 291.708Z" fill="white"/>
<path d="M52.064 290.048L74.9406 264.389L74.1933 263.476L51.026 289.466C51.3582 289.674 51.6903 289.84 52.064 290.048ZM102.924 272.651L104.211 272.817L78.6358 216.851C78.2206 216.768 77.7639 216.685 77.3487 216.602L102.924 272.651ZM45.5456 256.044L46.459 255.463L31.1802 224.781C30.8896 224.988 30.599 225.196 30.2668 225.403L45.5456 256.044Z" fill="white"/>
<path d="M162.171 289.01L162.669 289.383C162.669 289.383 162.752 289.217 162.96 288.968C165.617 284.775 185.961 250.647 173.215 217.723C173.132 217.473 173.007 217.183 172.924 216.934C171.263 212.782 169.063 208.672 166.24 204.644C166.24 204.644 162.462 198.915 152.912 194.929C152.705 194.846 152.497 194.763 152.248 194.68C147.889 192.936 142.325 191.608 135.475 191.317H135.059C135.059 191.317 134.976 191.441 134.769 191.732C133.066 194.223 124.223 208.132 124.887 227.521C124.887 227.77 124.887 228.019 124.929 228.268C125.718 245.664 134.229 267.296 162.171 289.01Z" fill="#2A94F4"/>
<path d="M162.337 289.549L162.711 289.425L163.084 289.3L163.001 289.01L135.474 191.4H135.059C135.059 191.4 134.976 191.524 134.769 191.815L162.171 289.093L162.337 289.549Z" fill="white"/>
<path d="M124.929 228.268L146.435 231.88L146.643 231.174L124.846 227.521C124.887 227.77 124.887 228.019 124.929 228.268ZM151.501 249.692L151.833 250.439L173.215 217.764C173.132 217.515 173.007 217.224 172.924 216.975L151.501 249.692ZM140.955 213.28L141.578 213.571L152.871 194.97C152.663 194.887 152.456 194.804 152.206 194.721L140.955 213.28Z" fill="white"/>
<path d="M162.503 291.251C162.794 291.293 163.084 291.293 163.333 291.334V290.712C163.333 284.567 162.046 235.534 124.348 209.294C124.057 209.086 123.766 208.879 123.434 208.671C118.618 205.433 113.221 202.526 107.2 200.16C107.2 200.16 98.8552 196.589 85.3202 198.665C85.0296 198.707 84.6975 198.748 84.4068 198.79C78.2621 199.828 71.0794 202.028 63.1494 206.18C62.9833 206.263 62.8588 206.346 62.6927 206.429C62.6927 206.429 62.6927 206.637 62.6512 207.052C62.4851 210.789 62.4436 231.133 76.9335 251.02C77.1411 251.269 77.3072 251.518 77.5148 251.809C90.7176 269.496 115.67 286.684 162.503 291.251Z" fill="#FFBE55"/>
<path d="M163.043 291.708L163.333 291.334L163.624 290.961L163.333 290.712L63.1495 206.18C62.9834 206.263 62.8588 206.346 62.6928 206.429C62.6928 206.429 62.6928 206.637 62.6512 207.052L162.461 291.251L163.043 291.708Z" fill="white"/>
<path d="M77.5148 251.768L104.253 241.513L104.004 240.599L76.9336 250.979C77.1412 251.269 77.3073 251.518 77.5148 251.768ZM122.604 256.916L123.517 257.497L124.389 209.253C124.098 209.045 123.808 208.838 123.476 208.63L122.604 256.916ZM84.9051 225.569L85.8185 225.486L85.3203 198.624C85.0297 198.666 84.6975 198.707 84.4069 198.749L84.9051 225.569Z" fill="white"/>
<path d="M186.708 293.659L185.172 305.7L179.982 307.568L181.352 293.12L186.708 293.659ZM163.043 293.659L161.507 305.7L156.317 307.568L157.687 293.12L163.043 293.659Z" fill="#DBA17B"/>
<path d="M169.769 144.691L161.59 155.113L169.395 159.347L178.155 148.511L169.769 144.691Z" fill="#CC9271"/>
<path d="M190.735 145.439C190.486 143.861 190.32 142.242 190.196 140.623C190.113 139.336 190.154 138.048 190.196 136.761C190.32 135.474 190.32 134.187 190.237 132.983C190.237 133.025 190.196 133.066 190.196 133.108C190.113 132.028 189.947 130.949 189.656 129.911C188.826 127.295 187.123 124.846 184.466 123.932C179.152 122.147 172.675 127.129 169.976 135.101C167.278 143.072 169.395 151.002 174.709 152.788C178.488 154.075 182.847 151.916 186.002 147.722C187.248 147.681 188.493 147.598 189.697 147.266C190.113 147.141 190.528 146.975 190.735 146.601C190.86 146.228 190.818 145.812 190.735 145.439Z" fill="#DBA17B"/>
<path d="M195.136 132.319C196.839 131.738 198.292 130.285 198.624 128.541C198.956 126.756 197.96 124.763 196.257 124.182C194.97 123.725 193.434 124.099 192.272 123.434C191.566 123.019 191.109 122.313 190.611 121.691C187.871 118.203 183.345 116.21 178.944 116.542C174.543 116.874 170.35 119.49 168.149 123.31C166.281 126.548 165.824 130.409 166.157 134.105C166.489 137.8 167.61 141.412 168.689 144.941C170.516 141.329 172.343 137.717 174.17 134.146C174.585 133.357 175 132.527 175.747 132.07C176.495 131.613 177.657 131.655 178.072 132.402C178.363 132.9 178.28 133.523 178.28 134.063C178.28 134.644 178.363 135.309 178.861 135.558C179.401 135.848 180.107 135.516 180.605 135.142C181.684 134.354 182.639 133.399 183.511 132.361C184.051 131.696 184.591 130.866 185.38 130.534C186.251 130.16 186.999 130.575 187.788 131.032C188.867 131.655 189.988 132.236 191.234 132.485C192.521 132.734 193.891 132.734 195.136 132.319ZM189.656 207.841C191.275 218.221 192.811 236.281 194.431 246.661C196.797 261.898 189.282 284.692 186.501 299.846C184.466 299.597 182.681 298.974 180.647 298.725C181.311 273.025 180.148 240.267 178.488 214.609C182.1 215.065 186.044 207.384 189.656 207.841Z" fill="#0B4870"/>
<path d="M164.454 215.065C166.572 215.19 168.648 213.28 170.765 213.446C173.339 213.612 176.121 214.11 178.571 214.858C181.02 215.605 183.885 213.322 186.293 212.491C186.791 216.643 185.919 224.033 185.13 228.144C183.304 237.776 181.186 247.325 178.737 256.791C177.408 262.023 173.464 267.046 171.388 272.029C170.516 274.146 169.686 276.346 168.897 278.505C167.236 282.989 164.371 295.611 162.711 300.095C160.676 299.929 158.6 299.887 156.566 299.721C156.773 295.196 158.559 282.159 158.725 277.634C159.057 270.077 162.835 262.147 165.824 255.172C164.33 247.948 164.288 240.101 164.33 232.711C164.371 226.192 164.413 221.542 164.454 215.065Z" fill="#0E538C"/>
<path d="M193.144 187.165C193.891 187.289 194.763 187.248 195.344 186.75C195.635 186.501 195.842 186.127 196.05 185.836C196.756 185.006 197.96 184.591 198.998 184.84C201.157 185.38 202.195 188.12 204.353 188.577C204.686 188.66 205.018 188.66 205.35 188.784C205.682 188.909 205.973 189.116 206.014 189.448C206.097 189.864 205.807 190.196 205.516 190.528C205.142 190.943 204.727 191.358 204.353 191.773C204.187 191.94 203.98 192.147 203.772 192.23C203.316 192.438 202.734 192.23 202.361 192.521C202.028 192.77 201.945 193.268 201.572 193.517C201.032 193.849 200.285 193.351 199.662 193.6C199.33 193.725 199.122 194.015 198.873 194.182C198.416 194.472 197.794 194.431 197.254 194.265C196.714 194.057 196.257 193.725 195.801 193.476C195.178 193.144 194.514 192.894 193.849 192.687C192.023 192.23 190.071 192.355 188.161 192.521C188.078 191.026 188.037 189.531 187.954 188.037C187.954 187.788 187.954 187.497 188.078 187.248C188.327 186.791 188.992 186.791 189.531 186.916C190.196 187.082 190.528 187.04 191.151 186.916C191.773 186.791 192.521 187.082 193.144 187.165Z" fill="#DBA17B"/>
<path d="M198.043 192.895C197.835 192.562 197.918 192.106 198.25 191.898L210.208 184.01C210.54 183.802 210.996 183.885 211.204 184.217C211.412 184.549 211.329 185.006 210.996 185.214L199.039 193.102C198.707 193.31 198.25 193.227 198.043 192.895Z" fill="#0B4870"/>
<path d="M188.493 299.472C188.66 299.098 189.116 298.974 189.407 299.223C190.694 300.302 194.14 302.752 200.991 304.33C200.991 304.33 202.651 304.662 203.855 306.613H178.446V302.129C178.446 301.631 179.027 301.382 179.401 301.672L180.397 302.503C180.854 302.918 181.477 303.126 182.058 303.126L185.712 303.167C186.501 303.167 187.206 302.71 187.497 301.963L188.493 299.472Z" fill="#CCE9FF"/>
<path d="M203.884 309.241H178.475V306.625H203.884V309.241Z" fill="#0E538C"/>
<path d="M163.666 300.884C163.915 300.593 164.413 300.635 164.62 300.967C165.451 302.42 167.9 305.866 173.754 309.727C173.754 309.727 175.208 310.641 175.706 312.841L151.791 304.247L153.327 300.012C153.494 299.555 154.116 299.472 154.365 299.929L154.988 301.05C155.279 301.59 155.777 302.005 156.358 302.212L159.763 303.458C160.51 303.749 161.34 303.499 161.839 302.918L163.666 300.884Z" fill="#CCE9FF"/>
<path d="M174.773 315.316L150.866 306.711L151.752 304.25L175.659 312.855L174.773 315.316Z" fill="#0E538C"/>
<path d="M188.867 185.047C190.694 191.151 192.064 200.741 192.936 207.052C193.143 208.547 193.019 214.193 191.981 215.273C191.358 215.937 175.291 217.722 168.606 219.923C167.693 220.213 163.333 221.916 162.461 221.542C161.216 221.002 160.552 215.522 160.842 214.235C164.703 197.586 164.703 209.834 159.057 177.076C157.936 170.516 155.777 164.454 158.019 158.185C158.766 156.109 164.413 150.047 164.413 150.047C164.413 150.047 166.323 152.082 168.274 153.244C169.893 154.199 172.011 155.901 173.381 156.234C179.65 157.687 186.667 177.699 188.867 185.047Z" fill="#2A94F4"/>
<path d="M181.103 229.472C181.643 230.635 181.892 231.922 182.017 233.167C182.183 235.368 181.934 237.568 181.311 239.644C180.397 239.436 179.65 238.606 179.525 237.651C179.941 238.315 179.567 239.312 178.82 239.519C178.072 239.727 177.242 239.021 177.283 238.232C177.076 238.897 176.329 239.395 175.664 239.27C174.958 239.146 174.419 238.482 174.46 237.776C174.751 237.983 174.668 238.482 174.419 238.689C174.128 238.897 173.713 238.855 173.422 238.689C173.132 238.523 172.924 238.191 172.8 237.859C172.592 237.277 172.509 236.655 172.467 236.032C172.26 233.375 172.094 230.676 171.886 228.019C171.845 227.645 171.845 227.272 172.011 226.939C172.343 226.317 173.215 226.234 173.962 226.275L176.827 226.4C177.45 226.441 178.114 226.4 178.695 226.607C179.733 227.105 180.605 228.476 181.103 229.472Z" fill="#DBA17B"/>
<path d="M170.724 167.111C170.392 172.716 170.059 178.363 169.686 183.968C169.478 187.082 169.312 190.237 169.769 193.309C170.142 195.884 170.931 198.375 171.72 200.824C174.585 209.709 177.45 218.594 180.356 227.479C177.284 227.271 174.17 227.064 171.097 226.856C168.648 217.349 163.915 200.368 163.499 198.831C160.095 188.161 158.891 176.827 159.97 165.7L170.724 167.111Z" fill="#2A94F4"/>
<path d="M156.524 112.515C156.524 101.512 144.442 92.5859 129.537 92.5859C114.632 92.5859 102.55 101.512 102.55 112.515C102.55 123.517 114.632 132.444 129.537 132.444C132.361 132.444 135.101 132.111 137.633 131.53L147.39 139.502V127.461C152.995 123.808 156.524 118.452 156.524 112.515Z" fill="#FFBE55"/>
<path d="M140.955 93.2088C140.955 84.2823 131.157 77.0166 119.033 77.0166C106.91 77.0166 97.1115 84.2408 97.1115 93.2088C97.1115 102.135 106.91 109.401 119.033 109.401C121.317 109.401 123.559 109.152 125.635 108.654L133.523 115.13V105.374C138.09 102.343 140.955 98.0249 140.955 93.2088Z" fill="white"/>
<path d="M130.368 87.3964H106.702C106.37 87.3964 106.079 87.1058 106.079 86.7737C106.079 86.4415 106.37 86.1509 106.702 86.1509H130.368C130.7 86.1509 130.991 86.4415 130.991 86.7737C130.991 87.1058 130.7 87.3964 130.368 87.3964ZM130.368 91.8804H106.702C106.37 91.8804 106.079 91.5898 106.079 91.2576C106.079 90.9255 106.37 90.6349 106.702 90.6349H130.368C130.7 90.6349 130.991 90.9255 130.991 91.2576C130.991 91.5898 130.7 91.8804 130.368 91.8804ZM130.368 96.4059H106.702C106.37 96.4059 106.079 96.1153 106.079 95.7831C106.079 95.451 106.37 95.1604 106.702 95.1604H130.368C130.7 95.1604 130.991 95.451 130.991 95.7831C130.991 96.1153 130.7 96.4059 130.368 96.4059ZM130.368 100.89H106.702C106.37 100.89 106.079 100.599 106.079 100.267C106.079 99.935 106.37 99.6444 106.702 99.6444H130.368C130.7 99.6444 130.991 99.935 130.991 100.267C130.991 100.599 130.7 100.89 130.368 100.89Z" fill="#FFBE55"/>
</svg>
